  0
SECTION
  2
HEADER
  9
$ANGBASE
  50
0.0
  9
$ANGDIR
  70
1
  9
$MEASUREMENT
  70
1
  0
ENDSEC
  0
SECTION
  2
TABLES
  0
TABLE
  2
LTYPE
  70
4
  0
LTYPE
  5
40F
  2
CONTINUOUS
  70
0
  3
Solid line
  72
65
  73
0
  40
0.0
  0
LTYPE
  5
410
  2
DASHDOT
 70
0
  3
Dash Dot ____ _ ____ _
 72
65
 73
4
 40
2.0
 49
1.25
 49
-0.25
 49
0.25
 49
-0.25
  0
LTYPE
  5
411
  2
DASHED
 70
0
  3
Dashed __ __ __ __ __
 72
65
 73
2
 40
0.75
 49
0.5
 49
-0.25
  0
LTYPE
  5
43B
  2
DOTTED
 70
0
  3
Dotted .  .  .  .
 72
65
 73
2
 40
0.2
 49
0.0
 49
-0.2
  0
ENDTAB
  0
TABLE
  2
STYLE
  70
4
  0
STYLE
  2
KICAD
  70
0
  40
0
  41
1
  42
1
  50
0
  71
0
  3
isocp.shx
  0
STYLE
  2
KICADB
  70
0
  40
0
  41
1
  42
1
  50
0
  71
0
  3
isocp.shx
  0
STYLE
  2
KICADI
  70
0
  40
0
  41
1
  42
1
  50
15
  71
0
  3
isocp.shx
  0
STYLE
  2
KICADBI
  70
0
  40
0
  41
1
  42
1
  50
15
  71
0
  3
isocp.shx
  0
ENDTAB
  0
TABLE
  2
LAYER
  70
1
  0
LAYER
  2
BLACK
  70
0
  62
7
  6
CONTINUOUS
  0
ENDTAB
  0
ENDSEC
  0
SECTION
  2
ENTITIES
0
ARC
8
BLACK
10
74.430499999999995
20
-98.1097999999999928
40
0.2000137984765051
50
-23.92655699
51
67.98810088
0
ARC
8
BLACK
10
74.8113000000000028
20
-100.9551000000000016
40
0.2999987853458744
50
-245.00088518
51
-164.15151269
0
LINE
8
BLACK
6
CONTINUOUS
10
68.6298529999999971
20
-98.1467719999999986
11
57.5296749999999975
21
-98.1467719999999986
0
ARC
8
BLACK
10
53.5884999999999962
20
-125.0467999999999904
40
0.2000032843980318
50
-89.98825272
51
-54.98397114
0
ARC
8
BLACK
10
73.6251000000000033
20
-123.0569999999999879
40
0.2000697382914268
50
24.25406315
51
108.68580361
0
LINE
8
BLACK
6
CONTINUOUS
10
49.8272599999999954
20
-99.9148349999999965
11
49.8272599999999954
21
-99.914835999999994
0
LINE
8
BLACK
6
CONTINUOUS
10
74.6845100000000031
20
-100.6831869999999896
11
76.3322039999999902
21
-99.9148560000000003
0
LINE
8
BLACK
6
CONTINUOUS
10
78.7797529999999995
20
-104.9467719999999957
11
78.7797529999999995
21
-117.9467719999999957
0
ARC
8
BLACK
10
74.4303999999999917
20
-124.7837999999999994
40
0.2000292960793493
50
-67.95552832
51
25.01294810
0
ARC
8
BLACK
10
70.2797529999999995
20
-107.29677199999999
40
0.3
50
-180.00000000
51
-0.00000000
0
ARC
8
BLACK
10
76.416799999999995
20
-122.7974999999999994
40
0.1999513919356402
50
-113.94398915
51
-22.02500153
0
LINE
8
BLACK
6
CONTINUOUS
10
57.5296749999999975
20
-98.146772999999996
11
57.5296749999999975
21
-98.1467719999999986
0
LINE
8
BLACK
6
CONTINUOUS
10
52.3530759999999944
20
-122.9723800000000011
11
51.5478169999999949
21
-124.6992649999999969
0
LINE
8
BLACK
6
CONTINUOUS
10
69.9797530000000023
20
-113.1967719999999957
11
69.9797530000000023
21
-114.3967719999999986
0
LINE
8
BLACK
6
CONTINUOUS
10
68.9325019999999995
20
-98.4642029999999977
11
68.92837999999999
21
-98.4170889999999901
0
ARC
8
BLACK
10
53.0797499999999971
20
-101.4467700000000008
40
1.4999974631915216
50
-195.85250654
51
105.85245936
0
LINE
8
BLACK
6
CONTINUOUS
10
75.7282529999999952
20
-118.9467719999999957
11
70.7797529999999995
21
-118.9467719999999957
0
ARC
8
BLACK
10
75.7282999999999902
20
-103.4468999999999994
40
0.4998858823071522
50
-89.99392509
51
-53.96351718
0
ARC
8
BLACK
10
57.0277999999999992
20
-98.4467999999999961
40
0.1999627415920276
50
-90.01031468
51
-4.99283777
0
ARC
8
BLACK
10
69.7977999999999952
20
-104.2583999999999946
40
0.499858148627188
50
-52.95136267
51
-10.85752519
0
ARC
8
BLACK
10
70.2797999999999945
20
-117.9967999999999932
40
0.3000061825846261
50
-356.41077339
51
-127.06741162
0
LINE
8
BLACK
6
CONTINUOUS
10
53.0797519999999992
20
-97.6467719999999986
11
53.5885429999999943
21
-97.6467719999999986
0
LINE
8
BLACK
6
CONTINUOUS
10
70.5797529999999966
20
-115.5967720000000014
11
70.5797529999999966
21
-116.79677199999999
0
ARC
8
BLACK
10
52.5342999999999947
20
-123.0568999999999988
40
0.1999644182748521
50
71.27625382
51
154.99640053
0
ARC
8
BLACK
10
51.3481999999999985
20
-100.9551000000000016
40
0.3000235970352998
50
-15.84817437
51
64.99967362
0
ARC
8
BLACK
10
49.7426999999999992
20
-100.0960999999999927
40
0.1999668377731668
50
64.99098040
51
157.95947928
0
ARC
8
BLACK
10
51.7290999999999954
20
-98.1097999999999928
40
0.2000005688241911
50
-247.96314095
51
-155.01418949
0
ARC
8
BLACK
10
49.7426999999999992
20
-122.7973999999999961
40
0.2000574529079084
50
-157.94779443
51
-64.99618672
0
LINE
8
BLACK
6
CONTINUOUS
10
51.4749969999999948
20
-100.6831869999999896
11
49.8272599999999954
21
-99.914835999999994
0
LINE
8
BLACK
6
CONTINUOUS
10
69.9797530000000023
20
-108.4967719999999929
11
69.9797530000000023
21
-109.6967719999999957
0
LINE
8
BLACK
6
CONTINUOUS
10
57.2270040000000009
20
-98.4642029999999977
11
57.2308169999999947
21
-98.4206219999999945
0
LINE
8
BLACK
6
CONTINUOUS
10
53.7032629999999997
20
-97.6829429999999945
11
55.0280950000000004
21
-98.6106010000000026
0
LINE
8
BLACK
6
CONTINUOUS
10
73.0797529999999966
20
-125.2467709999999954
11
73.0797529999999966
21
-125.2467719999999929
0
LINE
8
BLACK
6
CONTINUOUS
10
78.2797529999999995
20
-104.4467719999999957
11
71.078212999999991
21
-104.4467719999999957
0
LINE
8
BLACK
6
CONTINUOUS
10
53.7032629999999997
20
-125.2106009999999969
11
55.0280950000000004
21
-124.2829429999999888
0
ARC
8
BLACK
10
73.07974999999999
20
-101.4467700000000008
40
3.8000018641286215
50
-39.25148282
51
22.03584991
0
LINE
8
BLACK
6
CONTINUOUS
10
53.0797519999999992
20
-125.2467719999999929
11
53.5885409999999993
21
-125.2467719999999929
0
ARC
8
BLACK
10
53.0796999999999954
20
-121.4467999999999961
40
3.79994020011697
50
-180.00040711
51
-157.96419668
0
LINE
8
BLACK
6
CONTINUOUS
10
78.2797529999999995
20
-118.4467719999999957
11
71.0781530000000004
21
-118.4467719999999957
0
ARC
8
BLACK
10
69.7974999999999994
20
-118.6353000000000009
40
0.5001785087236356
50
10.86860184
51
52.93470146
0
ARC
8
BLACK
10
69.1317999999999984
20
-98.4466999999999928
40
0.2000720055205125
50
-174.98097523
51
-90.01345966
0
ARC
8
BLACK
10
57.5296999999999983
20
-98.4467999999999961
40
0.300027224386388
50
90.00477422
51
174.99445906
0
ARC
8
BLACK
10
70.2797529999999995
20
-113.1967719999999957
40
0.3
50
0.00000000
51
180.00000000
0
ARC
8
BLACK
10
70.2797529999999995
20
-110.8967719999999986
40
0.3
50
0.00000000
51
180.00000000
0
ARC
8
BLACK
10
73.0797999999999917
20
-101.4467999999999961
40
3.8000280002906552
50
67.96492045
51
90.00070865
0
ARC
8
BLACK
10
55.142799999999994
20
-98.4467999999999961
40
0.1999720006400896
50
-125.00241864
51
-89.99541570
0
LINE
8
BLACK
6
CONTINUOUS
10
50.2797529999999995
20
-119.3837089999999961
11
50.2797529999999995
21
-103.5098359999999929
0
LINE
8
BLACK
6
CONTINUOUS
10
52.316168999999995
20
-99.8420169999999985
11
51.5478169999999949
21
-98.1942789999999945
0
ARC
8
BLACK
10
70.2797529999999995
20
-116.79677199999999
40
0.3
50
-180.00000000
51
-0.00000000
0
ARC
8
BLACK
10
70.2797529999999995
20
-109.6967719999999957
40
0.3
50
-180.00000000
51
-0.00000000
0
ARC
8
BLACK
10
71.0780999999999921
20
-117.9467999999999961
40
0.4999720028091573
50
-176.41924735
51
-89.99392631
0
LINE
8
BLACK
6
CONTINUOUS
10
70.5797529999999966
20
-110.8967719999999986
11
70.5797529999999966
21
-111.9967719999999929
0
ARC
8
BLACK
10
71.0168000000000035
20
-98.4469999999999885
40
0.1997520904145937
50
-90.01347987
51
-55.00633491
0
LINE
8
BLACK
6
CONTINUOUS
10
71.0165530000000018
20
-124.2467719999999929
11
55.1428170000000009
21
-124.2467719999999929
0
ARC
8
BLACK
10
51.4695999999999998
20
-121.9921999999999969
40
0.2000246675837758
50
-64.99293691
51
18.71466533
0
LINE
8
BLACK
6
CONTINUOUS
10
70.5797529999999966
20
-108.4967719999999929
11
70.5797529999999966
21
-109.6967719999999957
0
LINE
8
BLACK
6
CONTINUOUS
10
72.5709609999999969
20
-97.6467719999999986
11
73.0797529999999966
21
-97.6467719999999986
0
LINE
8
BLACK
6
CONTINUOUS
10
70.7797529999999995
20
-103.9467729999999932
11
70.7797529999999995
21
-103.9467719999999957
0
ARC
8
BLACK
10
51.7290999999999954
20
-124.7837999999999994
40
0.1999971408920637
50
-205.00022910
51
-112.04287845
0
ARC
8
BLACK
10
50.0796999999999954
20
-119.3836999999999904
40
0.2000530002024463
50
-34.99497658
51
-0.00257763
0
LINE
8
BLACK
6
CONTINUOUS
10
69.9797530000000023
20
-106.0967720000000014
11
69.9797530000000023
21
-107.29677199999999
0
ARC
8
BLACK
10
71.0165999999999968
20
-124.4473999999999876
40
0.2006280055052135
50
56.06412285
51
90.01342236
0
ARC
8
BLACK
10
76.416799999999995
20
-100.0960999999999927
40
0.2000146763415125
50
22.03987560
51
115.02090837
0
ARC
8
BLACK
10
73.0797999999999917
20
-121.4467999999999961
40
3.7999818341821054
50
-22.03576937
51
39.25226340
0
ARC
8
BLACK
10
73.5715000000000003
20
-99.7152999999999992
40
0.2999208984682461
50
-105.86618167
51
-24.99893580
0
LINE
8
BLACK
6
CONTINUOUS
10
49.2797529999999995
20
-101.9555599999999913
11
49.2797529999999995
21
-101.4467709999999983
0
LINE
8
BLACK
6
CONTINUOUS
10
70.5797529999999966
20
-106.0967720000000014
11
70.5797529999999966
21
-107.29677199999999
0
LINE
8
BLACK
6
CONTINUOUS
10
51.5478159999999974
20
-124.6992649999999969
11
51.5478169999999949
21
-124.6992649999999969
0
ARC
8
BLACK
10
70.2797999999999945
20
-104.8967999999999989
40
0.2999508547079004
50
-232.93903387
51
-3.57855063
0
ARC
8
BLACK
10
70.2797529999999995
20
-115.5967720000000014
40
0.3
50
0.00000000
51
180.00000000
0
LINE
8
BLACK
6
CONTINUOUS
10
69.9797530000000023
20
-110.8967719999999986
11
69.9797530000000023
21
-111.9967719999999929
0
LINE
8
BLACK
6
CONTINUOUS
10
71.0167529999999942
20
-98.6467719999999986
11
69.1317530000000033
21
-98.6467719999999986
0
ARC
8
BLACK
10
73.0797999999999917
20
-121.4467999999999961
40
1.4999585533540583
50
-378.71284952
51
-71.28807072
0
ARC
8
BLACK
10
70.2797529999999995
20
-111.9967719999999929
40
0.3
50
-180.00000000
51
-0.00000000
0
LINE
8
BLACK
6
CONTINUOUS
10
74.605284999999995
20
-122.173413999999994
11
76.3356319999999897
21
-122.9802869999999899
0
ARC
8
BLACK
10
71.0781999999999954
20
-104.9467999999999961
40
0.5000132462645365
50
89.99851039
51
176.41355859
0
ARC
8
BLACK
10
53.0796999999999954
20
-101.4467999999999961
40
3.799947000110659
50
157.96341400
51
179.99956274
0
ARC
8
BLACK
10
72.570999999999998
20
-97.8468000000000018
40
0.2000457913203874
50
90.01117111
51
125.00645049
0
LINE
8
BLACK
6
CONTINUOUS
10
49.2797529999999995
20
-121.4467729999999932
11
49.2797529999999995
21
-120.937981999999991
0
ARC
8
BLACK
10
53.0797999999999988
20
-121.4467999999999961
40
3.7999720003031596
50
-112.03671012
51
-90.00072374
0
ARC
8
BLACK
10
55.142799999999994
20
-124.4467999999999961
40
0.2000158830543214
50
89.99513054
51
124.99321704
0
ARC
8
BLACK
10
73.0797999999999917
20
-101.4467999999999961
40
1.4999626432044899
50
-285.85052961
51
15.85406801
0
LINE
8
BLACK
6
CONTINUOUS
10
49.3159239999999954
20
-102.0702819999999917
11
50.2435819999999964
21
-103.3951139999999924
0
ARC
8
BLACK
10
53.5884999999999962
20
-97.8468000000000018
40
0.2000280046218529
50
54.99317433
51
89.98768313
0
ARC
8
BLACK
10
72.5708999999999946
20
-125.0467999999999904
40
0.1999720070234832
50
-124.99218453
51
-89.98481449
0
ARC
8
BLACK
10
70.2797529999999995
20
-106.0967720000000014
40
0.3
50
0.00000000
51
180.00000000
0
ARC
8
BLACK
10
49.4797999999999973
20
-120.9379999999999882
40
0.2000470008098097
50
145.00239551
51
179.99484459
0
ARC
8
BLACK
10
68.6298999999999921
20
-98.4467999999999961
40
0.300028003681323
50
5.68455402
51
90.00897550
0
LINE
8
BLACK
6
CONTINUOUS
10
75.7283529999999985
20
-103.9467719999999957
11
70.7797529999999995
21
-103.9467719999999957
0
LINE
8
BLACK
6
CONTINUOUS
10
51.5541449999999983
20
-122.1734489999999909
11
49.8272599999999954
21
-122.9787079999999975
0
ARC
8
BLACK
10
74.6897999999999911
20
-121.9921999999999969
40
0.1999532420867439
50
-198.72441236
51
-115.00351218
0
ARC
8
BLACK
10
70.2797529999999995
20
-114.3967719999999986
40
0.3
50
-180.00000000
51
-0.00000000
0
ARC
8
BLACK
10
49.4797999999999973
20
-101.9555999999999898
40
0.200018260416393
50
-180.01145646
51
-145.01530154
0
LINE
8
BLACK
6
CONTINUOUS
10
70.5797529999999966
20
-113.1967719999999957
11
70.5797529999999966
21
-114.3967719999999986
0
LINE
8
BLACK
6
CONTINUOUS
10
73.843322999999998
20
-99.8420469999999938
11
74.6132679999999908
21
-98.1908930000000026
0
ARC
8
BLACK
10
75.7282000000000011
20
-119.4469999999999885
40
0.5002280028077196
50
53.97824344
51
89.99392942
0
ARC
8
BLACK
10
70.2797529999999995
20
-108.4967719999999929
40
0.3
50
0.00000000
51
180.00000000
0
LINE
8
BLACK
6
CONTINUOUS
10
55.1428159999999963
20
-98.6467719999999986
11
57.0277639999999977
21
-98.6467719999999986
0
ARC
8
BLACK
10
73.0797999999999917
20
-121.4467999999999961
40
3.7999562454203337
50
-90.00070866
51
-67.96460366
0
LINE
8
BLACK
6
CONTINUOUS
10
73.8075559999999911
20
-122.9747939999999886
11
74.611668999999992
21
-124.6992229999999893
0
LINE
8
BLACK
6
CONTINUOUS
10
72.5709530000000029
20
-125.2467719999999929
11
73.0797529999999966
21
-125.2467719999999929
0
LINE
8
BLACK
6
CONTINUOUS
10
69.9797530000000023
20
-115.5967720000000014
11
69.9797530000000023
21
-116.79677199999999
0
LINE
8
BLACK
6
CONTINUOUS
10
72.456239999999994
20
-97.6829449999999895
11
71.1313549999999992
21
-98.6106399999999894
0
ARC
8
BLACK
10
70.7797999999999945
20
-118.4467999999999961
40
0.4999720022091237
50
-169.14298391
51
-90.00538610
0
LINE
8
BLACK
6
CONTINUOUS
10
49.3159239999999954
20
-120.8232629999999972
11
50.2435819999999964
21
-119.498429999999999
0
ARC
8
BLACK
10
53.0797999999999988
20
-101.4467999999999961
40
3.8000434221778305
50
90.00072373
51
112.03639332
0
ARC
8
BLACK
10
78.2797999999999945
20
-117.9467999999999961
40
0.4999530007840737
50
-90.00538610
51
0.00320887
0
ARC
8
BLACK
10
78.2797999999999945
20
-104.9467999999999961
40
0.5000280022088763
50
0.00320887
51
90.00538550
0
ARC
8
BLACK
10
50.0796999999999954
20
-103.5097999999999985
40
0.2000254696782387
50
-0.01031051
51
34.98465179
0
ARC
8
BLACK
10
53.0797999999999988
20
-121.4467999999999961
40
1.5000356845228715
50
-468.71533005
51
-161.28830239
0
LINE
8
BLACK
6
CONTINUOUS
10
72.456239999999994
20
-125.2105989999999878
11
71.128588999999991
21
-124.2809680000000014
0
ARC
8
BLACK
10
70.7797999999999945
20
-104.4467999999999961
40
0.5000511285348729
50
90.00538551
51
169.13668230
0
ARC
8
BLACK
10
52.5880999999999972
20
-99.7151999999999958
40
0.3000176472826223
50
-154.99766498
51
-74.15630714
  0
ENDSEC
  0
EOF
